# xmcd CD database file
#
# Track frame offsets:
#	187
#	22515
#	44815
#
# Disc length: 892 seconds
#
# Revision: 0
# Processed by: cddbd v1.5.1PL0 Copyright (c) Steve Scherf et al.
# Submitted via: CDex 1.51
#
DISCID=1a037a03
DTITLE=米倉 千尋 - 約束
DYEAR=1997
DGENRE=JPop
TTITLE0=約束
TTITLE1=Carryon
TTITLE2=約束（original karaoke）
EXTD=YEAR: 1997
EXTT0=
EXTT1=
EXTT2=
PLAYORDER=
